<?xml version="1.0" standalone="no"?><!DOCTYPE svg PUBLIC "-//W3C//DTD SVG 1.1//EN" "http://www.w3.org/Graphics/SVG/1.1/DTD/svg11.dtd"><svg t="1668514712688" class="icon" viewBox="0 0 1024 1024" version="1.1" xmlns="http://www.w3.org/2000/svg" p-id="3978" xmlns:xlink="http://www.w3.org/1999/xlink" width="128" height="128"><path d="M757.76 800l29.525333 62.122667a14.72 14.72 0 0 0 26.538667-0.213334l21.888-43.946666 5.888 12.245333 102.912 0.213333c-24.917333 38.101333-69.290667 77.994667-125.866667 128.554667l-14.250666 12.629333a12.629333 12.629333 0 0 1-17.792 0l-14.421334-12.629333c-56.106667-50.218667-100.266667-89.002667-124.672-127.488h90.453334l19.797333-31.488zM515.541333 118.784l2.218667 1.152L746.24 272.64c7.68 5.205333 5.12 16.426667-2.901333 18.645333l-2.858667 0.384h-43.093333a10.325333 10.325333 0 0 0-9.898667 7.552l-0.341333 2.730667v325.973333a99.754667 99.754667 0 0 0-67.370667 32.64 119.765333 119.765333 0 0 0-20.309333 30.122667v-37.674667a10.325333 10.325333 0 0 0-7.552-9.984l-2.730667-0.341333H434.773333a10.325333 10.325333 0 0 0-9.941333 7.552l-0.384 2.773333v198.570667c0 4.949333 3.413333 9.088 8.021333 10.112l2.389334 0.213333h154.282666c4.736 0 8.746667-3.2 9.941334-7.552l0.384-2.773333v-36.437333c3.84 8.533333 7.594667 15.872 11.306666 22.058666l3.669334 5.802667h-0.554667c11.477333 20.565333 26.496 41.216 44.586667 62.848H128.384a10.325333 10.325333 0 0 1-9.898667-7.594667l-0.384-2.730666v-418.048c0-4.736 3.242667-8.746667 7.594667-9.941334l2.688-0.384h154.624c4.693333 0 8.704 3.242667 9.898667 7.594667l0.384 2.730667v374.101333c0 4.736 3.2 8.746667 7.552 9.984l2.730666 0.341333h23.04c4.736 0 8.746667-3.2 9.941334-7.552l0.384-2.773333V301.952a10.325333 10.325333 0 0 0-7.594667-9.941333l-2.730667-0.341334H283.562667c-9.258667 0-13.397333-10.837333-7.936-17.152l2.176-1.877333 228.522666-152.746667a10.026667 10.026667 0 0 1 9.216-1.109333z m424.533334 581.973333c17.578667 16.554667 27.349333 39.68 27.050666 63.786667-0.128 15.061333-3.413333 29.952-9.813333 43.648H856.746667l-9.045334-19.242667a14.250667 14.250667 0 0 0-12.288-7.850666 13.354667 13.354667 0 0 0-12.245333 7.850666l-22.826667 46.250667-28.672-59.818667a14.933333 14.933333 0 0 0-12.458666-8.874666 13.866667 13.866667 0 0 0-12.458667 6.570666l-22.101333 35.626667h-90.282667a102.570667 102.570667 0 0 1-9.045333-44.16 86.186667 86.186667 0 0 1 92.202666-87.04c27.648 1.578667 53.376 14.421333 71.253334 35.584l7.466666 8.704 7.466667-8.704a100.053333 100.053333 0 0 1 71.210667-35.584 86.186667 86.186667 0 0 1 65.237333 23.296z m-701.013334 29.568H172.245333a10.24 10.24 0 0 0-10.026666 8.021334l-0.256 2.389333v23.125333c0 4.693333 3.242667 8.746667 7.552 9.941334l2.730666 0.341333h66.901334c4.693333 0 8.704-3.2 9.898666-7.552l0.384-2.730667v-23.210666a10.325333 10.325333 0 0 0-10.282666-10.325334z m0-87.765333H172.245333a10.24 10.24 0 0 0-10.026666 7.978667l-0.256 2.346666v23.125334c0 4.693333 3.242667 8.746667 7.552 9.941333l2.730666 0.384h66.901334c4.693333 0 8.704-3.242667 9.898666-7.594667l0.384-2.730666v-23.125334a10.325333 10.325333 0 0 0-10.282666-10.325333z m656.426667-175.36c4.736 0 8.746667 3.2 9.941333 7.552l0.384 2.730667v150.442666a111.189333 111.189333 0 0 0-61.269333 14.592l-59.605333 0.042667a10.325333 10.325333 0 0 0-9.941334 7.594667l-0.384 2.730666 0.042667 10.410667a120.618667 120.618667 0 0 0-43.818667-28.586667V477.44c0-4.736 3.2-8.746667 7.594667-9.941333l2.773333-0.384h154.282667zM239.104 554.794667H172.202667a10.24 10.24 0 0 0-10.026667 7.936l-0.256 2.346666v23.210667c0 4.736 3.242667 8.746667 7.552 9.941333l2.730667 0.384h66.901333c4.693333 0 8.704-3.242667 9.898667-7.594666l0.384-2.730667v-23.210667a10.325333 10.325333 0 0 0-10.282667-10.282666z m612.693333 0h-66.858666a10.325333 10.325333 0 0 0-9.941334 7.552l-0.384 2.730666v23.210667c0 4.736 3.242667 8.746667 7.594667 9.941333l2.730667 0.384h66.858666c4.693333 0 8.704-3.242667 9.898667-7.594666l0.384-2.730667v-23.210667a10.325333 10.325333 0 0 0-10.282667-10.282666zM512 335.488c-48.341333 0-87.552 39.253333-87.552 87.765333 0 68.608 78.506667 118.784 150.442667 65.194667a9.642667 9.642667 0 0 0 2.176-2.133333c53.461333-72.149333 3.413333-150.826667-65.066667-150.826667z" fill="#0095FF" p-id="3979"></path></svg>