<?xml version="1.0" standalone="no"?><!DOCTYPE svg PUBLIC "-//W3C//DTD SVG 1.1//EN" "http://www.w3.org/Graphics/SVG/1.1/DTD/svg11.dtd"><svg t="1668836166901" class="icon" viewBox="0 0 1024 1024" version="1.1" xmlns="http://www.w3.org/2000/svg" p-id="2760" width="32" height="32" xmlns:xlink="http://www.w3.org/1999/xlink"><path d="M849.92 989.866667H174.08c-51.2 0-93.866667-42.666667-93.866667-93.866667v-768c0-51.2 42.666667-93.866667 93.866667-93.866667h677.546667c51.2 0 93.866667 42.666667 93.866666 93.866667v768c-1.706667 51.2-42.666667 93.866667-95.573333 93.866667zM174.08 85.333333C150.186667 85.333333 131.413333 104.106667 131.413333 128v768c0 23.893333 18.773333 42.666667 42.666667 42.666667h677.546667c23.893333 0 42.666667-18.773333 42.666666-42.666667v-768c0-23.893333-18.773333-42.666667-42.666666-42.666667H174.08z" fill="#ffffff" p-id="2761"></path><path d="M404.48 464.213333h-112.64c-32.426667 0-59.733333-27.306667-59.733333-59.733333v-122.88c0-32.426667 27.306667-59.733333 59.733333-59.733333h112.64c32.426667 0 59.733333 27.306667 59.733333 59.733333v122.88c0 34.133333-25.6 59.733333-59.733333 59.733333zM291.84 273.066667c-5.12 0-8.533333 3.413333-8.533333 8.533333v122.88c0 5.12 3.413333 8.533333 8.533333 8.533333h112.64c5.12 0 8.533333-3.413333 8.533333-8.533333v-122.88c0-5.12-3.413333-8.533333-8.533333-8.533333h-112.64zM766.293333 295.253333h-170.666666c-13.653333 0-25.6-11.946667-25.6-25.6s11.946667-25.6 25.6-25.6h170.666666c13.653333 0 25.6 11.946667 25.6 25.6s-11.946667 25.6-25.6 25.6zM766.293333 442.026667h-170.666666c-13.653333 0-25.6-11.946667-25.6-25.6s11.946667-25.6 25.6-25.6h170.666666c13.653333 0 25.6 11.946667 25.6 25.6s-11.946667 25.6-25.6 25.6zM766.293333 648.533333H257.706667c-13.653333 0-25.6-11.946667-25.6-25.6s11.946667-25.6 25.6-25.6h506.88c13.653333 0 25.6 11.946667 25.6 25.6s-10.24 25.6-23.893334 25.6z" fill="#ffffff" p-id="2762"></path><path d="M766.293333 802.133333H257.706667c-13.653333 0-25.6-11.946667-25.6-25.6s11.946667-25.6 25.6-25.6h506.88c13.653333 0 25.6 11.946667 25.6 25.6s-10.24 25.6-23.893334 25.6z" fill="#ffffff" p-id="2763"></path></svg>