<?xml version="1.0" standalone="no"?><!DOCTYPE svg PUBLIC "-//W3C//DTD SVG 1.1//EN" "http://www.w3.org/Graphics/SVG/1.1/DTD/svg11.dtd"><svg t="1673273497371" class="icon" viewBox="0 0 1024 1024" version="1.1" xmlns="http://www.w3.org/2000/svg" p-id="8863" xmlns:xlink="http://www.w3.org/1999/xlink" width="128" height="128"><path d="M864 0H160C70.4 0 0 70.4 0 160v704c0 89.6 70.4 160 160 160h704c89.6 0 160-70.4 160-160V160c0-89.6-70.4-160-160-160z m96 864c0 54.4-41.6 96-96 96H160c-54.4 0-96-41.6-96-96V160c0-54.4 41.6-96 96-96h704c54.4 0 96 41.6 96 96v704z" fill="#1296db" p-id="8864"></path><path d="M768 480h-224V256c0-19.2-12.8-32-32-32s-32 12.8-32 32v224H256c-19.2 0-32 12.8-32 32s12.8 32 32 32h224v224c0 19.2 12.8 32 32 32s32-12.8 32-32v-224h224c19.2 0 32-12.8 32-32s-12.8-32-32-32z" fill="#1296db" p-id="8865"></path></svg>