<?xml version="1.0" standalone="no"?><!DOCTYPE svg PUBLIC "-//W3C//DTD SVG 1.1//EN" "http://www.w3.org/Graphics/SVG/1.1/DTD/svg11.dtd"><svg t="1652540320117" class="icon" viewBox="0 0 1024 1024" version="1.1" xmlns="http://www.w3.org/2000/svg" p-id="6949" xmlns:xlink="http://www.w3.org/1999/xlink" width="128" height="128"><defs><style type="text/css">@font-face { font-family: feedback-iconfont; src: url("//at.alicdn.com/t/font_1031158_u69w8yhxdu.woff2?t=1630033759944") format("woff2"), url("//at.alicdn.com/t/font_1031158_u69w8yhxdu.woff?t=1630033759944") format("woff"), url("//at.alicdn.com/t/font_1031158_u69w8yhxdu.ttf?t=1630033759944") format("truetype"); }
</style></defs><path d="M0 0h1024v1024H0V0z" fill="#202425" opacity=".01" p-id="6950"></path><path d="M612.9664 119.364267A307.336533 307.336533 0 0 1 819.2 409.6v240.981333c58.2656 10.717867 102.4 61.781333 102.4 123.118934 0 6.280533-5.12 11.3664-11.3664 11.3664H113.7664A11.3664 11.3664 0 0 1 102.4 773.700267a125.201067 125.201067 0 0 1 102.4-123.118934V409.6a307.336533 307.336533 0 0 1 206.2336-290.235733 102.4 102.4 0 0 1 201.9328 0z" fill="#11AA66" p-id="6951"></path><path d="M341.333333 832.170667a17.066667 17.066667 0 0 1 16.5888-12.970667h308.155734a17.066667 17.066667 0 0 1 16.5888 12.970667A170.973867 170.973867 0 0 1 512 989.866667a170.973867 170.973867 0 0 1-170.666667-157.696z" fill="#FFAA44" p-id="6952"></path></svg>